HIERARCHY
ROOT Hips
{
	OFFSET	0.00	0.00	0.00
	CHANNELS 6 Xposition Yposition Zposition Zrotation Xrotation Yrotation
	JOINT LeftUpLeg
	{
		OFFSET	 0.126116	-0.014019	-0.065224
		CHANNELS 3 Zrotation Xrotation Yrotation
		JOINT LeftLeg
		{
			OFFSET	 0.000000	 0.000000	 0.569914
			CHANNELS 3 Zrotation Xrotation Yrotation
			JOINT LeftFoot
			{
				OFFSET	 0.000000	 0.000000	 0.544423
				CHANNELS 3 Zrotation Xrotation Yrotation
				JOINT LeftToeBase
				{
					OFFSET	 0.000000	 0.000000	 0.207117
					CHANNELS 3 Zrotation Xrotation Yrotation
					End Site
					{
						OFFSET	 0.000000	 0.000000	 0.207117
					}
				}
			}
		}
	}
	JOINT RightUpLeg
	{
		OFFSET	-0.124023	-0.008373	-0.065224
		CHANNELS 3 Zrotation Xrotation Yrotation
		JOINT RightLeg
		{
			OFFSET	 0.000000	 0.000000	 0.570047
			CHANNELS 3 Zrotation Xrotation Yrotation
			JOINT RightFoot
			{
				OFFSET	 0.000000	 0.000000	 0.544354
				CHANNELS 3 Zrotation Xrotation Yrotation
				JOINT RightToeBase
				{
					OFFSET	 0.000000	 0.000000	 0.207540
					CHANNELS 3 Zrotation Xrotation Yrotation
					End Site
					{
						OFFSET	 0.000000	 0.000000	 0.207540
					}
				}
			}
		}
	}
	JOINT Spine
	{
		OFFSET	 0.000184	-0.007763	 0.117403
		CHANNELS 3 Zrotation Xrotation Yrotation
		JOINT Spine1
		{
			OFFSET	 0.000000	 0.000000	 0.137269
			CHANNELS 3 Zrotation Xrotation Yrotation
			JOINT Spine2
			{
				OFFSET	 0.000000	 0.000000	 0.156879
				CHANNELS 3 Zrotation Xrotation Yrotation
				JOINT LeftShoulder
				{
					OFFSET	 0.080501	-0.002496	 0.160144
					CHANNELS 3 Zrotation Xrotation Yrotation
					JOINT LeftArm
					{
						OFFSET	 0.000000	 0.000000	 0.164363
						CHANNELS 3 Zrotation Xrotation Yrotation
						JOINT LeftForeArm
						{
							OFFSET	 0.000000	 0.000000	 0.364576
							CHANNELS 3 Zrotation Xrotation Yrotation
							JOINT LeftHand
							{
								OFFSET	 0.000000	 0.000000	 0.360812
								CHANNELS 3 Zrotation Xrotation Yrotation
								JOINT LeftHandIndex1
								{
									OFFSET	 0.000000	 0.000000	 0.086006
									CHANNELS 3 Zrotation Xrotation Yrotation
									JOINT LeftHandIndex2
									{
										OFFSET	 0.000000	 0.000000	 0.047236
										CHANNELS 3 Zrotation Xrotation Yrotation
										JOINT LeftHandIndex3
										{
											OFFSET	-0.004284	-0.000551	 0.038166
											CHANNELS 3 Zrotation Xrotation Yrotation
											End Site
											{
												OFFSET	-0.004284	-0.000551	 0.038166
											}
										}
									}
								}
							}
						}
					}
				}
				JOINT Neck
				{
					OFFSET	 0.000000	 0.000000	 0.176489
					CHANNELS 3 Zrotation Xrotation Yrotation
					JOINT Head
					{
						OFFSET	 0.000000	-0.001747	 0.077940
						CHANNELS 3 Zrotation Xrotation Yrotation
						End Site
						{
							OFFSET	 0.000000	-0.001747	 0.077940
						}
					}
				}
				JOINT RightShoulder
				{
					OFFSET	-0.080363	 0.000306	 0.159706
					CHANNELS 3 Zrotation Xrotation Yrotation
					JOINT RightArm
					{
						OFFSET	 0.000000	 0.000000	 0.164196
						CHANNELS 3 Zrotation Xrotation Yrotation
						JOINT RightForeArm
						{
							OFFSET	 0.000000	 0.000000	 0.365611
							CHANNELS 3 Zrotation Xrotation Yrotation
							JOINT RightHand
							{
								OFFSET	 0.000000	 0.000000	 0.360648
								CHANNELS 3 Zrotation Xrotation Yrotation
								JOINT RightHandIndex1
								{
									OFFSET	 0.000000	 0.000000	 0.069977
									CHANNELS 3 Zrotation Xrotation Yrotation
									JOINT RightHandIndex2
									{
										OFFSET	 0.000000	 0.000000	 0.052305
										CHANNELS 3 Zrotation Xrotation Yrotation
										JOINT RightHandIndex3
										{
											OFFSET	 0.009002	-0.000782	 0.042196
											CHANNELS 3 Zrotation Xrotation Yrotation
											End Site
											{
												OFFSET	 0.009002	-0.000782	 0.042196
											}
										}
									}
								}
							}
						}
					}
				}
			}
		}
	}
}
MOTION
Frames:    13
Frame Time: 0.03333334
-0.000538	 0.016952	 1.310134	 0.002429	 0.000766	-0.165113	-4.659286	-1.525856	 179.061100	 1.476230	-11.716600	-0.683610	-5.173911	 63.881870	-0.926881	-2.385833	 28.452760	 0.000004	 4.576522	-2.247239	-178.765100	-1.449530	-12.774110	 0.733581	 5.130096	 64.258880	 0.842281	 2.384658	 28.388730	 0.000004	-11.344250	 2.768567	-0.086635	 1.919799	 3.570209	 0.763447	-5.775876	-4.400625	-1.253833	-91.776270	 78.527490	-179.999900	 56.232240	 39.764610	-53.347000	-20.825810	 2.523603	-10.253070	-34.183270	 3.130460	-3.965644	-2.635965	 4.993658	 6.788941	-5.165319	 0.784187	 3.516649	-5.225038	 0.466231	 0.424329	-0.000002	-3.783157	-0.089647	-5.615151	 4.779819	 0.234527	 89.782160	 78.203890	 179.999900	 3.834566	 13.159330	 101.218200	-21.639450	 2.179877	 10.340740	 9.377420	 1.599861	-6.302370	 6.112037	 4.509576	-0.364401	 4.968462	 1.518543	-9.347576	 5.168945	 0.703820	 2.021906
-0.000533	 0.016856	 1.311807	 0.002944	 0.002472	-0.151204	-4.534061	-1.534927	 179.038300	 1.476105	-11.727130	-0.684244	-5.190398	 63.619690	-0.914248	-2.385833	 28.452760	 0.000004	 4.421550	-2.238909	-178.765600	-1.449957	-12.741440	 0.731642	 5.106754	 63.975700	 0.843024	 2.384658	 28.388730	 0.000004	-11.204500	 2.765147	-0.073913	 1.772307	 3.568045	 0.708304	-5.331577	-4.420685	-1.159942	-91.776180	 78.527430	 180.000000	 56.226060	 39.737460	-53.305530	-21.006620	 2.589297	-10.388020	-33.493960	 0.611930	-4.212343	-2.635965	 4.993658	 6.788941	-5.165319	 0.784187	 3.516649	-5.225038	 0.466231	 0.424329	-0.000002	-3.783157	-0.089647	-5.181160	 4.832230	 0.218748	 89.782130	 78.203890	 180.000000	 3.861069	 13.293340	 101.229400	-21.559050	 2.246043	 10.476180	 8.258965	-0.837497	-6.105082	 6.112037	 4.509576	-0.364401	 4.968462	 1.518543	-9.347576	 5.168945	 0.703820	 2.021906
-0.000510	 0.016738	 1.313673	 0.003519	 0.004501	-0.132229	-4.375094	-1.548828	 179.008400	 1.475876	-11.745730	-0.685359	-5.189632	 63.324470	-0.903331	-2.385833	 28.452760	 0.000004	 4.260045	-2.226160	-178.769800	-1.450528	-12.697950	 0.729059	 5.098355	 63.649490	 0.840497	 2.384658	 28.388730	 0.000004	-11.019980	 2.760111	-0.055785	 1.566606	 3.567988	 0.630743	-4.711757	-4.449561	-1.028501	-91.776180	 78.527490	 180.000000	 56.253780	 39.709140	-53.304480	-21.211770	 2.666140	-10.542910	-32.670760	-2.994021	-4.456856	-2.635965	 4.993658	 6.788941	-5.165319	 0.784187	 3.516649	-5.225038	 0.466231	 0.424329	-0.000002	-3.783157	-0.089647	-4.576193	 4.896867	 0.195764	 89.782110	 78.203870	 180.000000	 3.801557	 13.456600	 101.210800	-21.478150	 2.322384	 10.632300	 6.817633	-4.329060	-5.953254	 6.112037	 4.509576	-0.364401	 4.968462	 1.518543	-9.347576	 5.168945	 0.703820	 2.021906
-0.000464	 0.016619	 1.315191	 0.003936	 0.006134	-0.113601	-4.238405	-1.563989	 178.981000	 1.475597	-11.768710	-0.686737	-5.189129	 63.074330	-0.893575	-2.385833	 28.452760	 0.000004	 4.121119	-2.213135	-178.775500	-1.451068	-12.656320	 0.726589	 5.090542	 63.366970	 0.838793	 2.384658	 28.388730	 0.000004	-10.827390	 2.755299	-0.037229	 1.359881	 3.569440	 0.552289	-4.088659	-4.477099	-0.895759	-91.776260	 78.527450	-179.999900	 56.307910	 39.696790	-53.353760	-21.384570	 2.732441	-10.674080	-31.932640	-6.714471	-4.596547	-2.635965	 4.993658	 6.788941	-5.165319	 0.784187	 3.516649	-5.225038	 0.466231	 0.424329	-0.000002	-3.783157	-0.089647	-3.968679	 4.953063	 0.171702	 89.782130	 78.203870	 180.000000	 3.767408	 13.633080	 101.168800	-21.420070	 2.387422	 10.764480	 5.434996	-7.905385	-5.939101	 6.112037	 4.509576	-0.364401	 4.968462	 1.518543	-9.347576	 5.168945	 0.703820	 2.021906
-0.000382	 0.016462	 1.316850	 0.004232	 0.007650	-0.089759	-4.078754	-1.586358	 178.947800	 1.475135	-11.806130	-0.688983	-5.188828	 62.788090	-0.881594	-2.385833	 28.452760	 0.000004	 3.958994	-2.196393	-178.784100	-1.451730	-12.605260	 0.723561	 5.080865	 63.036160	 0.837135	 2.384658	 28.388730	 0.000004	-10.545860	 2.749780	-0.012233	 1.087424	 3.572216	 0.448249	-3.267184	-4.509202	-0.719831	-91.776200	 78.527430	 180.000000	 56.410750	 39.697860	-53.478790	-21.577990	 2.807987	-10.821040	-31.026070	-11.716090	-4.621915	-2.635965	 4.993658	 6.788941	-5.165319	 0.784187	 3.516649	-5.225038	 0.466231	 0.424329	-0.000002	-3.783157	-0.089647	-3.168757	 5.014493	 0.138773	 89.782120	 78.203870	 180.000000	 3.733034	 13.873030	 101.091700	-21.357670	 2.461164	 10.912720	 3.090048	-12.485910	-6.119363	 6.112037	 4.509576	-0.364401	 4.968462	 1.518543	-9.347576	 5.168945	 0.703820	 2.021906
-0.000309	 0.017082	 1.317172	 0.004247	 0.008442	-0.067724	-4.062822	-1.615421	 178.927000	 1.474588	-11.850340	-0.691637	-5.192251	 62.762550	-0.875905	-2.385833	 28.452760	 0.000004	 3.941586	-2.211965	-178.799000	-1.452302	-12.561150	 0.720947	 5.075701	 62.939270	 0.839733	 2.384658	 28.388730	 0.000004	-10.235920	 2.747528	-0.022344	 0.825352	 3.572306	 0.413166	-2.485653	-4.531796	-0.581236	-91.776150	 78.527450	 180.000000	 56.541800	 39.727020	-53.665130	-21.735520	 2.869680	-10.939530	-30.179030	-16.526010	-4.473358	-2.635965	 4.993658	 6.788941	-5.165319	 0.784187	 3.516649	-5.225038	 0.466231	 0.424329	-0.000002	-3.783157	-0.089647	-2.406300	 5.060042	 0.106326	 89.782070	 78.203890	-180.000000	 2.970557	 14.155880	 100.937500	-21.084810	 2.524252	 11.030330	 0.589056	-16.881170	-6.493672	 6.112037	 4.509576	-0.364401	 4.968462	 1.518543	-9.347576	 5.168945	 0.703820	 2.021906
-0.000245	 0.017905	 1.317671	 0.002846	 0.009771	-0.037669	-4.062291	-1.651204	 178.900200	 1.473903	-11.905860	-0.694973	-5.196784	 62.770560	-0.870186	-2.385833	 28.452760	 0.000004	 3.941767	-2.227005	-178.820900	-1.453107	-12.498400	 0.717228	 5.069717	 62.854260	 0.844018	 2.384658	 28.388730	 0.000004	-9.813069	 2.742839	 0.016362	 0.527122	 3.574089	 0.264914	-1.578975	-4.553803	-0.370285	-91.776130	 78.527450	 180.000000	 56.717640	 39.775160	-53.929780	-21.889900	 2.931484	-11.056650	-29.162570	-22.026910	-4.077877	-2.635965	 4.993658	 6.788941	-5.165319	 0.784187	 3.516649	-5.225038	 0.466231	 0.424329	-0.000002	-3.783157	-0.089647	-1.526414	 5.097016	 0.067929	 89.782070	 78.203900	-180.000000	 0.629826	 14.508860	 100.600200	-20.450030	 2.590133	 11.148390	-2.217988	-22.052370	-7.217719	 6.112037	 4.509576	-0.364401	 4.968462	 1.518543	-9.347576	 5.168945	 0.703820	 2.021906
-0.000195	 0.018726	 1.318363	 0.000872	 0.011226	-0.004947	-4.061355	-1.688959	 178.870900	 1.473151	-11.966470	-0.698618	-5.202107	 62.781970	-0.863607	-2.385833	 28.452760	 0.000004	 3.942381	-2.239680	-178.845100	-1.453939	-12.433300	 0.713370	 5.064147	 62.769980	 0.847851	 2.384658	 28.388730	 0.000004	-9.302792	 2.739434	 0.053760	 0.228080	 3.574308	 0.111847	-0.668306	-4.566629	-0.156009	-91.776240	 78.527450	-180.000000	 56.915240	 39.845910	-54.248330	-22.019840	 2.981974	-11.152050	-28.038480	-27.358160	-3.418036	-2.635965	 4.993658	 6.788941	-5.165319	 0.784187	 3.516649	-5.225038	 0.466231	 0.424329	-0.000002	-3.783157	-0.089647	-0.643452	 5.117463	 0.028741	 89.782110	 78.203870	 180.000000	-2.832325	 15.069090	 100.071100	-19.431180	 2.650260	 11.247370	-4.752805	-27.291860	-8.323174	 6.112037	 4.509576	-0.364401	 4.968462	 1.518543	-9.347576	 5.168945	 0.703820	 2.021906
-0.000127	 0.019620	 1.319092	-0.000765	 0.011352	 0.025701	-4.060762	-1.732840	 178.845100	 1.472224	-12.040330	-0.703059	-5.207932	 62.798270	-0.856482	-2.385833	 28.452760	 0.000004	 3.942721	-2.256901	-178.867800	-1.454715	-12.372350	 0.709762	 5.058080	 62.682750	 0.852114	 2.384658	 28.388730	 0.000004	-8.604023	 2.737411	 0.098586	-0.107879	 3.575806	-0.051855	 0.352170	-4.571168	 0.080751	-91.776250	 78.527430	-180.000000	 57.166820	 39.940200	-54.661620	-22.135710	 3.028816	-11.238890	-26.571910	-32.881710	-2.337073	-2.635965	 4.993658	 6.788941	-5.165319	 0.784187	 3.516649	-5.225038	 0.466231	 0.424329	-0.000002	-3.783157	-0.089647	 0.345964	 5.120458	-0.015483	 89.782070	 78.203900	-180.000000	-7.318840	 16.099510	 98.967810	-17.838330	 2.710440	 11.335560	-6.975146	-33.054630	-10.074420	 6.112037	 4.509576	-0.364401	 4.968462	 1.518543	-9.347576	 5.168945	 0.703820	 2.021906
-0.000055	 0.020326	 1.319652	-0.002035	 0.009859	 0.046736	-4.060288	-1.772721	 178.829100	 1.471326	-12.112170	-0.707381	-5.213464	 62.817820	-0.849852	-2.385833	 28.452760	 0.000004	 3.943130	-2.275250	-178.883600	-1.455172	-12.336380	 0.707632	 5.054083	 62.619280	 0.854615	 2.384658	 28.388730	 0.000004	-7.922307	 2.736924	 0.136260	-0.377271	 3.578966	-0.178862	 1.169584	-4.567854	 0.268502	-91.776210	 78.527430	-180.000000	 57.396400	 40.031190	-55.045700	-22.204190	 3.056906	-11.290550	-25.188030	-36.739480	-1.205355	-2.635965	 4.993658	 6.788941	-5.165319	 0.784187	 3.516649	-5.225038	 0.466231	 0.424329	-0.000002	-3.783157	-0.089647	 1.138699	 5.107682	-0.050804	 89.782090	 78.203850	 180.000000	-11.492830	 17.595840	 97.546630	-16.330310	 2.751323	 11.388010	-8.356839	-37.274490	-11.797500	 6.112037	 4.509576	-0.364401	 4.968462	 1.518543	-9.347576	 5.168945	 0.703820	 2.021906
 0.000029	 0.021118	 1.320182	-0.003430	 0.007732	 0.067850	-4.059736	-1.816893	 178.813800	 1.470307	-12.192350	-0.712207	-5.219278	 62.839670	-0.842904	-2.385833	 28.452760	 0.000004	 3.943628	-2.296454	-178.899300	-1.455644	-12.298940	 0.705417	 5.049438	 62.549780	 0.857652	 2.384658	 28.388730	 0.000004	-7.025214	 2.737374	 0.178057	-0.669686	 3.582215	-0.314653	 2.056505	-4.556385	 0.471090	-91.776200	 78.527470	-180.000000	 57.684160	 40.146930	-55.529900	-22.249850	 3.075755	-11.325110	-23.459890	-40.041210	 0.246211	-2.635965	 4.993658	 6.788941	-5.165319	 0.784187	 3.516649	-5.225038	 0.466231	 0.424329	-0.000002	-3.783157	-0.089647	 1.999280	 5.078572	-0.088686	 89.782070	 78.203890	-180.000000	-16.286520	 19.355190	 94.666150	-14.650720	 2.818360	 13.194890	-9.540788	-41.075620	-13.862070	 6.112037	 4.509576	-0.364401	 4.968462	 1.518543	-9.347576	 5.168945	 0.703820	 2.021906
 0.000089	 0.022004	 1.320491	-0.003221	 0.007436	 0.089983	-4.060717	-1.852584	 178.795200	 1.469582	-12.249000	-0.715618	-5.223689	 62.847370	-0.837303	-2.385833	 28.452760	 0.000004	 3.942383	-2.318304	-178.915100	-1.456239	-12.251640	 0.702620	 5.043649	 62.470760	 0.861738	 2.384658	 28.388730	 0.000004	-5.880439	 2.738343	 0.175300	-0.974081	 3.579991	-0.365602	 2.964574	-4.535934	 0.637336	-91.776180	 78.527470	 180.000000	 58.035130	 40.287750	-56.118470	-22.257210	 3.078745	-11.330550	-21.505470	-41.995540	 1.817578	-2.635965	 4.993658	 6.788941	-5.165319	 0.784187	 3.516649	-5.225038	 0.466231	 0.424329	-0.000002	-3.783157	-0.089647	 2.884235	 5.032063	-0.126777	 89.782140	 78.203920	 180.000000	-21.535390	 22.112940	 89.789570	-12.927800	 3.137282	 17.938280	-10.097450	-43.694610	-15.798560	 6.112037	 4.509576	-0.364401	 4.968462	 1.518543	-9.347576	 5.168945	 0.703820	 2.021906
 0.000141	 0.022788	 1.320675	-0.002771	 0.006545	 0.106060	-4.061749	-1.883875	 178.782300	 1.468943	-12.299200	-0.718644	-5.227581	 62.854090	-0.832360	-2.385833	 28.452760	 0.000004	 3.941193	-2.341493	-178.926300	-1.456649	-12.218870	 0.700683	 5.039116	 62.405120	 0.864735	 2.384658	 28.388730	 0.000004	-4.706566	 2.739934	 0.203488	-1.223068	 3.578935	-0.459386	 3.713901	-4.512896	 0.797910	-91.776180	 78.527450	 180.000000	 58.378630	 40.423250	-56.690410	-22.220990	 3.065852	-11.306140	-19.907220	-41.978450	 2.911236	-2.635965	 4.993658	 6.788941	-5.165319	 0.784187	 3.516649	-5.225038	 0.466231	 0.424329	-0.000002	-3.783157	-0.089647	 3.613338	 4.980954	-0.157225	 89.782100	 78.203890	 180.000000	-26.759140	 24.657190	 86.168850	-11.317870	 3.490341	 19.911730	-9.823413	-44.308100	-16.662930	 6.112037	 4.509576	-0.364401	 4.968462	 1.518543	-9.347576	 5.168945	 0.703820	 2.021906
